<svg xmlns="http://www.w3.org/2000/svg" xml:space="preserve" width="1170.3264" height="800" viewBox="0 0 1170.3264 800.00003">
  <path d="M150.52549117 274.66869836c67.022087 9.87052554 115.03427296 5.23990862 170.23610098-1.58415842 43.62528572-5.36176696 94.19649682-6.45849202 104.43259738 11.82025898 6.33663368 11.33282562 13.16070072 16.08530088 11.82025898 30.09900998-1.09672506 11.82025898 1.2185834 16.20715922-2.07159178 24.73724302-2.68088348 7.18964206-3.6557502 1.8278751-5.72734198 9.38309218-2.31530846 8.65194214-3.0464585 11.08910894 5.23990862 26.44325978 9.7486672 17.91317598 26.56511812 38.3853771 35.21706026 46.18431086 1.94973344 1.70601676 4.8743336-.24371668 4.02132522-2.68088348-5.84920032-16.93830926-21.20335116-63.24447846-11.21096728-104.92003074 5.4836253-22.5437929 26.44325978-25.22467638 30.09900998-53.25209458 3.6557502-27.78370152-77.9893376-28.88042658-92.97791342-28.88042658-14.98857582 0-100.77684718 12.55140902-172.67326778 14.13556744-71.8964206 1.58415842-112.1096728-4.02132522-222.14775382-28.39299322-16.57273424-3.6557502 13.52627574 40.57882722 35.3389186 44.23457742 26.68697646 4.50875858 66.16907862 6.092917 110.40365604 12.67326736z"/>
  <path d="M297.60850755 316.95354234c13.76999242-2.07159178 27.78370152-4.50875858 42.0411273-7.3115004 23.64051796-4.50875858 46.3061692-9.50495052 67.75323704-14.86671748 1.46230008-.36557502 2.4371668-1.94973344 2.07159178-3.41203352-.6092917-2.19345012-1.8278751-4.8743336-3.89946688-7.3115004-5.23990862-6.092917-14.13556744-8.5300838-23.1530846-6.45849202-13.52627574 1.46230008-27.53998484 2.80274182-41.79741062 3.89946688-32.04874342 2.31530846-62.51332842 3.29017518-91.393755 3.0464585.73115004 4.50875858 2.68088348 12.06397566 8.40822546 18.8880427 14.13556744 16.81645092 38.01980208 13.76999242 39.96953552 13.52627574zm8.04265044 43.01599402c14.13556744-4.02132522 28.6367099-8.28636712 43.38156904-13.03884238 27.53998484-8.89565882 53.6176696-18.278751 78.11119594-27.90555986.48743336-1.09672506 2.31530846-5.72734198.36557502-11.08910894-1.58415842-4.63061692-4.99619194-6.94592538-6.092917-7.67707542-18.8880427 5.23990862-39.48210216 10.11424222-61.78217838 14.25742578-30.58644334 5.60548364-62.1477534 8.65194214-87.7380048 10.11424222-.97486672 3.29017518 1.09672506 9.87052554 3.6557502 16.93830926 4.2650419 10.84539226 16.20715922 18.15689266 30.09900998 18.40060934zm23.7623763 34.7296269c8.40822546-1.70601676 12.91698404-3.0464585 22.42193456-6.092917 28.39299322-9.26123384 48.1340443-23.1530846 64.34120352-35.09520192 1.2185834-3.53389186 5.11805028-9.1393755 3.6557502-15.96344254-.36557502-1.58415842-.73115004-3.0464585-1.2185834-4.38690024-22.66565124 9.99238388-47.76846928 19.74105108-75.5521708 28.39299322-14.0137091 4.38690024-27.53998484 8.16450878-40.57882722 11.33282562-.12185834 1.34044174-.85300838 9.26123384 4.8743336 15.8415842 6.7022087 7.79893376 21.08149282 6.092917 22.05635954 5.97105866zm10.23610056 38.75095212c4.8743336 2.31530846 12.06397566.85300838 14.74485914.48743336 7.79893376-4.14318356 13.4044174-7.55521708 21.56892618-12.55140902 18.8880427-11.5765423 35.46077694-23.64051796 49.9619194-35.3389186.36557502-1.09672506 1.8278751-5.97105866-.85300838-11.33282562-2.4371668-4.8743336-6.58035036-6.82406704-7.67707542-7.3115004-13.4044174 8.40822546-29.00228492 17.0601676-46.67174422 25.22467638-15.47600918 7.06778372-32.53617678 11.45468396-45.94059418 15.8415842-.48743336 10.47981724 6.82406704 21.08149282 14.86671748 24.9809597zm36.07006864 34.36405188c6.092917 1.34044174 11.33282562.48743336 14.6230008-.36557502 10.60167558-8.77380048 21.9345012-18.76618436 33.5110435-31.43945172 8.16450878-8.89565882 12.91698404-17.6694593 19.13175938-25.95582642-.48743336-2.31530846.24371668-10.3579589-6.94592538-14.98857582-1.8278751-1.2185834-3.6557502-1.94973344-5.23990862-2.4371668-8.40822546 8.5300838-18.52246768 17.6694593-30.464585 26.8088348-15.71972586 11.94211732-30.83016002 20.83777614-44.11271908 27.53998484-1.94973344.97486672-2.55902514 3.41203352-1.46230008 5.23990862 3.0464585 4.75247526 9.7486672 13.03884238 20.95963448 15.59786752zm23.39680128 10.23610056c3.53389186 1.70601676 9.1393755 3.77760854 13.03884238 4.63061692 5.36176696 1.09672506 11.21096728 2.80274182 12.55140902 2.19345012 2.92460016-1.94973344 6.33663368-9.1393755 9.38309218-11.5765423 17.18202594-14.13556744 24.12795132-29.97715164 28.88042658-42.77227734-.73115004-1.58415842-2.07159178-3.77760854-4.02132522-5.97105866-3.77760854-3.89946688-7.9207921-5.36176696-10.11424222-5.97105866-7.79893376 12.67326736-16.08530088 22.05635954-28.51485156 36.07006864-4.8743336 5.4836253-15.35415084 13.64813408-21.69078452 19.13175938-1.46230008 1.2185834-1.2185834 3.41203352.48743336 4.2650419zm49.9619194 18.76618436c6.092917.36557502 10.23610056-3.41203352 10.9672506-4.02132522.97486672-7.79893376 3.16831684-17.91317598 8.16450878-28.88042658 2.55902514-5.72734198 5.36176696-10.60167558 8.16450878-14.6230008 0-.36557502.48743336-4.38690024-2.4371668-6.94592538-1.46230008-1.2185834-3.16831684-1.58415842-3.89946688-1.58415842-2.55902514 4.02132522-3.89946688 9.26123384-6.58035036 13.4044174-8.28636712 12.55140902-17.91317598 23.1530846-26.44325978 34.1203352 2.19345012 4.8743336 6.82406704 8.16450878 12.06397566 8.5300838zM85.69685429 315.24752558c42.40670232-1.2185834 60.68545332-3.89946688 112.35338948-12.42955068 8.89565882-1.46230008 22.5437929-1.8278751 39.23838548-2.4371668 1.8278751-.12185834 3.16831684-1.58415842 3.0464585-3.41203352-.24371668-1.8278751-.85300838-4.02132522-2.68088348-5.97105866-2.92460016-3.29017518-6.82406704-3.6557502-7.55521708-3.6557502-57.76085316-4.75247526-115.64356466-9.50495052-173.40441782-14.25742578-5.23990862-.12185834-15.47600918.6092917-25.71210974 6.94592538-2.80274182 1.8278751-5.23990862 3.6557502-7.18964206 5.60548364-1.09672506.97486672-1.2185834 2.68088348-.48743336 3.89946688 2.19345012 3.6557502 5.23990862 7.9207921 9.26123384 12.185834 6.45849202 6.7022087 13.03884238 10.84539226 17.91317598 13.28255906 7.67707542.24371668 19.98476776.73115004 35.21706026.24371668zm121.00533162 15.2322925c15.96344254-4.99619194 31.19573504-10.11424222 46.06245252-15.59786752 0-.85300838-.12185834-2.55902514-1.2185834-4.2650419-1.70601676-2.80274182-4.50875858-3.53389186-5.23990862-3.6557502-46.9154609 9.38309218-99.07083042 15.59786752-155.61310018 16.08530088-10.60167558.12185834-21.08149282 0-31.43945172-.24371668-2.4371668 1.46230008-9.87052554 6.33663368-10.60167558 13.64813408-1.09672506 9.99238388 9.99238388 22.5437929 28.6367099 24.9809597 40.2132522-6.7022087 83.59482124-16.69459258 129.41355708-30.95201836zm55.68926138 13.16070072c.73115004-.85300838 3.89946688-4.8743336 3.41203352-10.72353392-.12185834-1.58415842-.48743336-2.92460016-.97486672-4.02132522-.97486672-2.31530846-3.53389186-3.29017518-5.84920032-2.55902514-26.32140144 8.04265044-42.16298564 15.71972586-77.86747926 24.24980966-34.60776856 8.28636712-66.53465364 14.74485914-95.29322188 18.52246768-.97486672.73115004-14.98857582 7.55521708-14.0137091 18.52246768 1.09672506 11.69840064 18.64432602 25.22467638 38.14166042 22.17821788 41.79741062-17.79131764 83.71667958-35.9482103 125.75780688-54.59253632 8.89565882-3.6557502 17.79131764-7.67707542 26.68697646-11.5765423zm3.0464585 35.9482103c4.63061692-2.92460016 8.5300838-5.60548364 11.94211732-7.9207921 3.0464585-2.07159178 3.89946688-6.33663368 1.8278751-9.38309218-.97486672-1.46230008-2.19345012-2.92460016-3.6557502-4.38690024-2.55902514-2.4371668-5.23990862-4.02132522-7.43335874-4.99619194-2.19345012-.97486672-4.75247526-.73115004-6.7022087.73115004-13.16070072 9.38309218-24.61538468 12.185834-32.77989346 16.20715922-32.9017518 16.32901756-50.93678612 18.278751-89.44402156 38.01980208-9.87052554 4.99619194-17.91317598 9.62680886-23.64051796 13.03884238-1.70601676 1.09672506-2.92460016 2.80274182-3.29017518 4.8743336-.6092917 3.89946688.36557502 6.33663368.73115004 7.3115004 3.0464585 7.06778372 13.76999242 11.08910894 25.95582642 8.04265044.48743336-.12185834.85300838-.36557502 1.34044174-.48743336 30.70830168-11.21096728 44.35643576-19.86290942 60.3198783-26.8088348 17.0601676-7.55521708 41.4318356-19.37547606 64.82863688-34.24219354zm15.8415842 37.41051038c8.40822546-3.6557502 18.8880427-7.43335874 20.95963448-15.96344254 1.2185834-5.23990862-.36557502-12.7951257-5.4836253-18.15689266-2.4371668-2.4371668-4.99619194-3.77760854-6.7022087-4.63061692-3.0464585 1.34044174-8.04265044 3.53389186-14.0137091 6.33663368-35.46077694 16.81645092-49.3526277 27.90555986-79.8172127 42.89413568-7.3115004 3.53389186-18.278751 8.77380048-32.2924601 14.37928412-3.0464585 3.0464585-6.82406704 7.55521708-9.99238388 13.64813408-4.02132522 7.55521708-5.72734198 14.50114246-6.33663368 19.25361772 3.0464585 1.8278751 7.67707542 4.14318356 13.64813408 5.4836253 9.01751716 1.94973344 16.57273424.73115004 20.7159178-.24371668 32.77989346-19.37547606 33.02361014-19.61919274 33.02361014-19.61919274 58.00456984-34.7296269 45.20944414-34.1203352 66.29093696-43.38156904zm12.185834 44.23457742c11.21096728-10.11424222 20.22848444-16.4508759 27.66184318-21.56892618 1.46230008-.97486672 2.07159178-2.80274182 1.46230008-4.38690024-1.09672506-3.29017518-1.46230008-8.16450878-3.53389186-12.06397566-2.07159178-3.77760854-4.2650419-7.06778372-6.33663368-9.62680886-1.34044174-1.70601676-3.77760854-1.94973344-5.36176696-.6092917-4.2650419 3.53389186-10.11424222 8.16450878-17.18202594 13.28255906-28.51485156 21.08149282-43.8690024 27.4181265-70.43412052 46.06245252-7.67707542 5.36176696-18.52246768 13.4044174-31.31759338 24.12795132-1.46230008 1.2185834-1.8278751 3.41203352-.73115004 4.99619194 2.55902514 3.89946688 6.94592538 9.01751716 13.76999242 12.67326736 10.84539226 5.72734198 21.69078452 4.02132522 25.83396808 3.41203352 24.85910136-4.38690024 33.5110435-26.8088348 66.16907862-56.29855308zm50.32749442-4.02132522c.97486672-3.53389186.12185834-7.18964206-2.4371668-9.7486672-3.53389186-3.6557502-8.40822546-2.80274182-8.77380048-2.68088348-3.89946688 4.38690024-10.3579589 11.21096728-18.8880427 18.8880427-18.52246768 16.69459258-29.48971828 21.69078452-46.9154609 36.31378532-6.45849202 5.36176696-16.57273424 12.55140902-26.93069314 23.7623763-1.58415842 1.8278751-1.58415842 4.50875858.12185834 6.33663368 2.31530846 2.4371668 5.72734198 5.36176696 9.7486672 7.06778372 7.18964206 3.16831684 13.76999242 2.31530846 16.20715922 1.8278751 8.40822546-5.60548364 17.42574262-12.185834 26.44325978-20.1066261 24.00609298-21.08149282 40.45696888-43.38156904 51.42421948-61.66032004zm19.74105108 36.31378532c2.80274182-3.53389186 5.97105866-7.3115004 8.28636712-9.87052554 1.09672506-1.2185834.73115004-3.0464585-.6092917-3.89946688-1.8278751-.97486672-4.02132522-1.94973344-6.45849202-2.80274182-5.36176696-1.8278751-10.11424222-2.19345012-13.4044174-2.19345012-12.7951257 9.7486672-26.44325978 21.08149282-40.2132522 34.36405188-8.28636712 8.04265044-15.96344254 16.08530088-22.90936792 23.7623763 2.19345012 2.80274182 7.43335874 8.5300838 16.08530088 11.94211732 6.45849202 2.4371668 12.185834 2.55902514 15.59786752 2.4371668 7.79893376-5.4836253 13.28255906-10.9672506 16.57273424-14.74485914 11.5765423-12.55140902 7.67707542-14.13556744 27.05255148-38.9946688zm35.09520192-4.14318356c-6.21477534-3.41203352-12.06397566-3.16831684-14.74485914-2.92460016-7.18964206 9.26123384-14.37928412 19.13175938-21.69078452 29.8552933-10.11424222 14.98857582-18.8880427 29.48971828-26.56511812 43.2597107 3.0464585 1.09672506 6.82406704 2.19345012 11.33282562 2.55902514 9.26123384.97486672 16.81645092-.97486672 21.3252095-2.55902514 3.0464585-4.02132522 6.092917-8.28636712 9.1393755-12.7951257 12.06397566-17.91317598 21.20335116-35.58263528 28.0274182-51.7897945-1.2185834-1.58415842-3.53389186-3.77760854-6.82406704-5.60548364zm11.5765423 82.98552954c4.14318356-6.33663368 8.28636712-10.23610056 12.42955068-17.6694593 8.04265044-14.25742578 14.86671748-28.14927654 20.59405946-41.18811892.6092917-1.46230008.36557502-3.16831684-.73115004-4.38690024-2.07159178-2.4371668-5.36176696-5.4836253-9.87052554-7.9207921-3.89946688-2.07159178-7.55521708-3.16831684-10.47981724-3.77760854-1.94973344-.36557502-4.02132522.73115004-4.75247526 2.68088348-3.16831684 8.40822546-6.21477534 15.11043416-8.65194214 19.61919274-8.89565882 17.42574262-16.08530088 24.73724302-24.12795132 43.2597107-1.70601676 4.02132522-3.0464585 7.55521708-4.02132522 10.3579589-.73115004 2.07159178.24371668 4.2650419 2.19345012 5.11805028 9.99238388 4.38690024 20.47220112-2.07159178 25.5902514-4.75247526.85300838-.24371668 1.46230008-.73115004 1.8278751-1.34044174zm50.5712111-61.17288668c-1.8278751 2.31530846-4.50875858 5.72734198-7.55521708 9.99238388-4.02132522 5.72734198-16.08530088 23.27494294-30.464585 62.1477534-3.41203352 9.1393755-9.87052554 23.39680128-13.89185076 37.65422706-.73115004 2.68088348 1.58415842 5.23990862 4.2650419 4.63061692 3.16831684-.73115004 6.58035036-.73115004 8.77380048-2.68088348 46.9154609-43.01599402 55.32368636-76.89261254 57.02970312-86.76313808-.12185834-2.68088348-.97486672-9.7486672-6.33663368-16.4508759-4.38690024-5.11805028-9.38309218-7.55521708-11.82025898-8.5300838zm704.70678022-286.367099c-110.03808102 24.371668-150.25133322 29.97715164-222.14775382 28.39299322-71.8964206-1.58415842-157.56283362-14.13556744-172.67326778-14.13556744-14.98857582 0-96.63366362 1.09672506-92.97791342 28.88042658 3.6557502 28.0274182 24.61538468 30.70830168 30.09900998 53.25209458 9.99238388 41.67555228-5.36176696 87.98172148-11.21096728 104.92003074-.85300838 2.4371668 2.07159178 4.38690024 4.02132522 2.68088348 8.65194214-7.9207921 25.46839306-28.27113488 35.21706026-46.18431086 8.28636712-15.35415084 6.092917-17.42574262 5.23990862-26.44325978-.85300838-8.89565882-3.41203352-5.84920032-5.72734198-9.38309218-4.99619194-7.67707542-.85300838-12.91698404-2.07159178-24.73724302-1.34044174-13.89185076 5.4836253-18.76618436 11.82025898-30.09900998 10.11424222-18.278751 60.80731166-17.18202594 104.43259738-11.82025898 55.20182802 6.82406704 103.21401398 11.5765423 170.23610098 1.58415842 44.23457742-6.58035036 83.71667958-8.16450878 110.52551438-12.55140902 21.81264286-3.77760854 51.91165284-48.01218596 35.21706026-44.35643576z"/>
  <path d="M830.61688671 316.70982566c14.37928412 2.68088348 28.39299322 5.11805028 42.0411273 7.3115004 1.94973344.24371668 25.83396808 3.29017518 39.96953552-13.64813408 5.72734198-6.94592538 7.67707542-14.37928412 8.40822546-18.8880427-28.88042658.24371668-59.34501158-.73115004-91.393755-3.0464585-14.25742578-1.09672506-28.27113488-2.31530846-41.79741062-3.89946688-9.01751716-1.94973344-17.91317598.36557502-23.1530846 6.45849202-2.07159178 2.4371668-3.29017518 5.11805028-3.89946688 7.3115004-.36557502 1.46230008.48743336 3.0464585 2.07159178 3.41203352 21.44706784 5.4836253 44.11271908 10.47981724 67.75323704 14.98857582zm-87.98172148-1.70601676c-1.8278751 5.36176696 0 9.99238388.36557502 11.08910894 24.49352634 9.62680886 50.5712111 19.13175938 78.11119594 27.90555986 14.74485914 4.75247526 29.2460016 9.01751716 43.38156904 13.03884238 14.0137091-.24371668 25.83396808-7.55521708 29.97715164-18.40060934 2.68088348-7.06778372 4.63061692-13.64813408 3.6557502-16.93830926-25.5902514-1.46230008-57.15156146-4.50875858-87.7380048-10.11424222-22.30007622-4.02132522-42.89413568-9.01751716-61.78217838-14.25742578-.97486672.73115004-4.2650419 3.0464585-5.97105866 7.67707542zm120.27418158 80.79207942c5.72734198-6.58035036 4.99619194-14.50114246 4.8743336-15.8415842-13.03884238-3.29017518-26.68697646-6.94592538-40.57882722-11.33282562-27.78370152-8.65194214-52.88651956-18.40060934-75.5521708-28.39299322-.48743336 1.34044174-.97486672 2.80274182-1.2185834 4.38690024-1.34044174 6.82406704 2.4371668 12.30769234 3.6557502 15.96344254 16.20715922 12.06397566 36.07006864 25.83396808 64.34120352 35.09520192 9.50495052 3.16831684 13.89185076 4.38690024 22.42193456 6.092917.97486672.12185834 15.35415084 1.8278751 22.05635954-5.97105866zm-110.03808102-21.44706784c-1.09672506.48743336-5.36176696 2.4371668-7.67707542 7.3115004-2.55902514 5.36176696-1.09672506 10.3579589-.85300838 11.33282562 14.50114246 11.69840064 31.0738767 23.7623763 49.9619194 35.3389186 8.16450878 4.99619194 13.76999242 8.40822546 21.56892618 12.55140902 2.68088348.36557502 9.87052554 1.94973344 14.74485914-.48743336 8.04265044-3.89946688 15.35415084-14.50114246 14.86671748-25.10281804-13.4044174-4.38690024-30.464585-8.77380048-45.94059418-15.8415842-17.79131764-8.16450878-33.26732682-16.81645092-46.67174422-25.10281804zm-18.76618436 27.53998484c-7.06778372 4.63061692-6.45849202 12.67326736-6.94592538 14.98857582 6.21477534 8.28636712 10.84539226 17.0601676 19.13175938 25.95582642 11.5765423 12.67326736 22.90936792 22.66565124 33.5110435 31.43945172 3.29017518.85300838 8.5300838 1.8278751 14.6230008.36557502 11.21096728-2.55902514 17.91317598-10.72353392 20.95963448-15.71972586 1.09672506-1.8278751.48743336-4.2650419-1.46230008-5.23990862-13.28255906-6.7022087-28.39299322-15.59786752-44.11271908-27.53998484-11.94211732-9.1393755-22.05635954-18.278751-30.464585-26.8088348-1.46230008.6092917-3.29017518 1.34044174-5.23990862 2.55902514zm-22.66565124 29.73343496c-2.07159178 2.07159178-3.29017518 4.2650419-4.02132522 5.97105866 4.75247526 12.7951257 11.69840064 28.6367099 28.88042658 42.77227734 3.0464585 2.4371668 6.33663368 9.7486672 9.38309218 11.5765423 1.46230008.6092917 7.3115004-1.09672506 12.55140902-2.19345012 3.89946688-.85300838 9.50495052-2.92460016 13.03884238-4.63061692 1.70601676-.85300838 1.94973344-3.0464585.6092917-4.2650419-6.33663368-5.4836253-16.81645092-13.64813408-21.69078452-19.13175938-12.30769234-14.0137091-20.59405946-23.39680128-28.51485156-36.07006864-2.31530846.48743336-6.58035036 2.07159178-10.23610056 5.97105866zm-11.08910894 16.20715922c-.73115004.12185834-2.4371668.36557502-3.89946688 1.58415842-2.92460016 2.55902514-2.4371668 6.58035036-2.4371668 6.94592538 2.68088348 4.02132522 5.60548364 8.89565882 8.16450878 14.6230008 4.99619194 10.9672506 7.18964206 21.08149282 8.16450878 28.88042658.73115004.6092917 4.8743336 4.50875858 10.9672506 4.02132522 5.23990862-.36557502 9.87052554-3.6557502 12.185834-8.5300838-8.40822546-10.9672506-18.03503432-21.56892618-26.44325978-34.1203352-2.80274182-4.14318356-4.2650419-9.38309218-6.7022087-13.4044174zm438.81188234-160.8530088c-10.11424222-6.33663368-20.47220112-6.94592538-25.71210974-6.94592538-57.76085316 4.75247526-115.64356466 9.50495052-173.40441782 14.25742578-.73115004 0-4.63061692.36557502-7.55521708 3.6557502-1.8278751 1.94973344-2.4371668 4.2650419-2.68088348 5.97105866-.24371668 1.8278751 1.2185834 3.29017518 3.0464585 3.41203352 16.69459258.6092917 30.22086832.97486672 39.23838548 2.4371668 51.7897945 8.5300838 69.94668716 11.21096728 112.35338948 12.42955068 15.2322925.48743336 27.66184318 0 35.09520192-.36557502 4.75247526-2.4371668 11.45468396-6.58035036 17.91317598-13.28255906 4.14318356-4.2650419 7.06778372-8.5300838 9.26123384-12.185834.73115004-1.2185834.6092917-2.92460016-.48743336-3.89946688-1.8278751-1.70601676-4.14318356-3.6557502-7.06778372-5.4836253zm-28.14927654 43.01599402c-10.23610056.24371668-20.7159178.36557502-31.43945172.24371668-56.6641281-.48743336-108.81949762-6.82406704-155.61310018-16.08530088-.6092917.12185834-3.41203352.85300838-5.23990862 3.6557502-1.09672506 1.70601676-1.2185834 3.41203352-1.2185834 4.2650419 14.74485914 5.36176696 30.09900998 10.60167558 46.06245252 15.59786752 45.81873584 14.25742578 89.20030488 24.12795132 129.41355708 31.0738767 18.64432602-2.4371668 29.73343496-14.98857582 28.6367099-24.9809597-.73115004-7.55521708-8.16450878-12.30769234-10.60167558-13.76999242zm-26.56511812 46.3061692c-28.88042658-3.89946688-60.80731166-10.3579589-95.29322188-18.52246768-35.58263528-8.5300838-51.42421948-16.32901756-77.86747926-24.24980966-2.4371668-.73115004-4.8743336.24371668-5.84920032 2.55902514-.48743336 1.09672506-.85300838 2.55902514-.97486672 4.02132522-.48743336 5.72734198 2.68088348 9.87052554 3.41203352 10.72353392 8.89565882 4.02132522 17.91317598 7.9207921 26.8088348 11.94211732 42.16298564 18.64432602 84.0822546 36.80121868 125.75780688 54.59253632 19.4973344 2.92460016 37.04493536-10.47981724 38.01980208-22.17821788 1.09672506-11.45468396-13.03884238-18.278751-14.0137091-18.8880427zm-29.73343496 51.54607782c-5.60548364-3.41203352-13.76999242-7.9207921-23.64051796-13.03884238-38.62909378-19.74105108-56.54226976-21.69078452-89.44402156-38.01980208-8.16450878-4.02132522-19.61919274-6.82406704-32.77989346-16.20715922-1.94973344-1.34044174-4.50875858-1.70601676-6.7022087-.73115004-2.19345012.97486672-4.8743336 2.55902514-7.43335874 4.99619194-1.46230008 1.46230008-2.68088348 2.92460016-3.6557502 4.38690024-2.07159178 3.0464585-1.2185834 7.3115004 1.8278751 9.38309218 3.29017518 2.31530846 7.3115004 4.99619194 11.94211732 7.9207921 23.51865962 14.86671748 47.89032762 26.68697646 64.82863688 34.1203352 15.8415842 6.94592538 29.48971828 15.59786752 60.3198783 26.8088348.48743336.12185834.85300838.36557502 1.34044174.48743336 12.185834 3.16831684 22.78750958-.97486672 25.95582642-8.04265044.36557502-.97486672 1.34044174-3.53389186.73115004-7.3115004-.36557502-1.94973344-1.58415842-3.6557502-3.29017518-4.75247526zm-48.49961932 21.20335116c-14.0137091-5.60548364-24.9809597-10.72353392-32.2924601-14.37928412-30.464585-14.98857582-44.35643576-26.1995431-79.8172127-42.89413568-5.97105866-2.80274182-10.9672506-4.99619194-14.0137091-6.33663368-1.70601676.73115004-4.2650419 2.07159178-6.7022087 4.63061692-5.11805028 5.23990862-6.7022087 12.91698404-5.4836253 18.15689266 2.07159178 8.5300838 12.67326736 12.42955068 20.95963448 15.96344254 21.20335116 9.1393755 8.40822546 8.5300838 66.29093696 43.50342738 0 0 .36557502.24371668 33.02361014 19.61919274 4.14318356.97486672 11.69840064 2.31530846 20.7159178.24371668 5.97105866-1.34044174 10.60167558-3.6557502 13.64813408-5.4836253-.73115004-4.75247526-2.31530846-11.69840064-6.33663368-19.25361772-3.16831684-6.21477534-6.94592538-10.72353392-9.99238388-13.76999242zm-55.81111972 30.22086832c-26.44325978-18.52246768-41.91926896-24.9809597-70.43412052-46.06245252-7.06778372-5.23990862-12.91698404-9.87052554-17.18202594-13.28255906-1.70601676-1.34044174-4.14318356-1.09672506-5.36176696.6092917-2.07159178 2.68088348-4.2650419 5.84920032-6.33663368 9.62680886-2.19345012 3.89946688-2.4371668 8.89565882-3.53389186 12.06397566-.6092917 1.58415842 0 3.41203352 1.46230008 4.38690024 7.43335874 5.11805028 16.4508759 11.45468396 27.66184318 21.56892618 32.65803512 29.61157662 41.30997726 51.91165284 66.04722028 56.0548364 4.2650419.73115004 14.98857582 2.31530846 25.83396808-3.41203352 6.82406704-3.53389186 11.21096728-8.77380048 13.76999242-12.67326736 1.09672506-1.58415842.73115004-3.77760854-.73115004-4.99619194-12.55140902-10.60167558-23.51865962-18.64432602-31.19573504-23.88423464zm-46.9154609 27.66184318c-17.42574262-14.6230008-28.39299322-19.61919274-46.9154609-36.31378532-8.5300838-7.67707542-14.98857582-14.50114246-18.8880427-18.8880427-.36557502-.12185834-5.23990862-.85300838-8.77380048 2.68088348-2.55902514 2.55902514-3.41203352 6.21477534-2.4371668 9.7486672 10.9672506 18.278751 27.4181265 40.57882722 51.42421948 61.5384617 9.01751716 7.9207921 18.03503432 14.50114246 26.44325978 20.1066261 2.4371668.48743336 9.01751716 1.34044174 16.20715922-1.8278751 4.02132522-1.70601676 7.43335874-4.63061692 9.7486672-7.06778372 1.70601676-1.70601676 1.70601676-4.50875858.12185834-6.33663368-10.3579589-11.08910894-20.47220112-18.278751-26.93069314-23.64051796zm-44.4782941 9.50495052c-13.76999242-13.28255906-27.4181265-24.73724302-40.2132522-34.36405188-3.29017518 0-8.04265044.36557502-13.4044174 2.19345012-2.4371668.85300838-4.63061692 1.8278751-6.45849202 2.80274182-1.46230008.73115004-1.70601676 2.68088348-.6092917 3.89946688 2.31530846 2.4371668 5.4836253 6.21477534 8.28636712 9.87052554 19.37547606 24.85910136 15.59786752 26.44325978 26.93069314 39.11652714 3.41203352 3.77760854 8.77380048 9.26123384 16.57273424 14.74485914 3.41203352.12185834 9.1393755 0 15.59786752-2.4371668 8.65194214-3.29017518 13.89185076-9.01751716 16.08530088-11.94211732-6.82406704-7.9207921-14.37928412-15.8415842-22.78750958-23.88423464zM786.26045095 493.526277c-2.55902514-.24371668-8.5300838-.36557502-14.74485914 2.92460016-3.29017518 1.8278751-5.4836253 3.89946688-6.94592538 5.60548364 6.82406704 16.20715922 15.96344254 33.87661852 28.0274182 51.7897945 3.0464585 4.50875858 6.092917 8.77380048 9.1393755 12.7951257 4.50875858 1.58415842 12.06397566 3.53389186 21.3252095 2.55902514 4.50875858-.48743336 8.28636712-1.46230008 11.33282562-2.55902514-7.55521708-13.76999242-16.32901756-28.27113488-26.56511812-43.2597107-7.18964206-10.72353392-14.37928412-20.59405946-21.56892618-29.8552933zm-.97486672 76.52703752c-7.9207921-18.52246768-15.2322925-25.83396808-24.12795132-43.2597107-2.31530846-4.63061692-5.4836253-11.21096728-8.65194214-19.61919274-.73115004-1.94973344-2.68088348-3.0464585-4.75247526-2.68088348-2.92460016.6092917-6.58035036 1.58415842-10.47981724 3.77760854-4.50875858 2.4371668-7.79893376 5.60548364-9.87052554 7.9207921-1.09672506 1.2185834-1.34044174 2.92460016-.73115004 4.38690024 5.84920032 13.16070072 12.55140902 26.93069314 20.59405946 41.18811892 4.14318356 7.3115004 8.28636712 11.33282562 12.42955068 17.6694593.36557502.6092917.97486672 1.09672506 1.58415842 1.46230008 4.99619194 2.55902514 15.59786752 9.1393755 25.5902514 4.75247526 1.94973344-.85300838 2.92460016-3.16831684 2.19345012-5.11805028-.73115004-3.0464585-2.07159178-6.58035036-3.77760854-10.47981724zm-37.7760854 20.35034278c-14.37928412-38.87281046-26.44325978-56.42041142-30.464585-62.1477534-3.0464585-4.2650419-5.72734198-7.79893376-7.55521708-9.99238388-2.55902514.97486672-7.43335874 3.41203352-11.5765423 8.5300838-5.36176696 6.7022087-6.21477534 13.76999242-6.33663368 16.4508759 1.70601676 9.87052554 9.99238388 43.8690024 57.02970312 86.76313808 2.07159178 1.94973344 5.60548364 1.94973344 8.77380048 2.68088348 2.68088348.6092917 4.99619194-1.94973344 4.2650419-4.63061692-4.14318356-14.25742578-10.72353392-28.51485156-14.13556744-37.65422706zM506.59556065 180.9596349c0 1.8278751 1.46230008 3.29017518 3.29017518 3.41203352l32.04874342 3.41203352 2.07159178 19.61919274c.36557502 3.77760854 1.8278751 9.26123384 4.2650419 14.98857582 1.8278751 4.2650419 6.45849202 12.7951257 6.45849202 12.7951257l-.12185834 10.84539226c9.38309218-2.07159178 17.79131764-2.92460016 24.12795132-3.29017518 0 0 2.07159178-.12185834 5.84920032-.12185834h.24371668c3.6557502 0 5.84920032.12185834 5.84920032.12185834 6.092917.36557502 14.25742578 1.09672506 23.27494294 3.0464585l-.12185834-10.3579589s4.63061692-8.5300838 6.45849202-12.7951257c2.4371668-5.84920032 3.89946688-11.21096728 4.2650419-14.98857582l2.07159178-19.61919274 32.04874342-3.41203352c1.8278751-.12185834 3.29017518-1.58415842 3.29017518-3.41203352V168.1645092c0-1.2185834-.97486672-2.19345012-2.19345012-2.19345012-17.79131764-.48743336-37.53236872-2.4371668-55.68926138-3.0464585-5.84920032-12.7951257-5.72734198-41.06626058-5.36176696-29.36785994-1.2185834-34.97334358.12185834-54.10510296 4.02132522-82.61995452l7.3115004.12185834c1.46230008 0 2.80274182-1.2185834 2.80274182-2.68088348V20.22848444c0-1.46230008-1.09672506-2.55902514-2.4371668-2.68088348l-9.1393755-.73115004c-.12185834-1.46230008-1.09672506-7.67707542-6.7022087-12.30769234-3.6557502-3.0464585-7.55521708-3.77760854-9.7486672-4.02132522V0c-1.70601676.12185834-6.33663368.6092917-10.60167558 4.14318356-5.60548364 4.50875858-6.58035036 10.84539226-6.7022087 12.30769234l-9.1393755.73115004c-1.34044174.12185834-2.4371668 1.34044174-2.4371668 2.68088348v28.14927654c0 1.46230008 1.2185834 2.68088348 2.80274182 2.68088348l7.3115004-.12185834c3.89946688 28.6367099 5.23990862 47.76846928 4.02132522 82.61995452.36557502-11.69840064.48743336 16.69459258-5.36176696 29.36785994-18.15689266.6092917-37.7760854 2.4371668-55.68926138 3.0464585-1.2185834 0-2.19345012.97486672-2.19345012 2.19345012v13.16070072zm108.81949762 414.56207268h-62.51332842l-.48743336 93.58720512c-.36557502 14.74485914 5.23990862 49.47448604 11.94211732 73.35872068 5.97105866 20.95963448 12.30769234 25.10281804 19.25361772 35.82635196v1.70601676c.24371668-.24371668.36557502-.6092917.6092917-.85300838.12185834.24371668.24371668.36557502.36557502.6092917v-1.09672506c7.06778372-10.84539226 13.4044174-14.86671748 19.25361772-35.82635196 6.7022087-23.88423464 12.30769234-58.61386154 11.94211732-73.35872068z"/>
  <path d="M684.99617041 446.0015244c-6.45849202-8.16450878 25.46839306-69.09367878 8.65194214-122.83320672-19.74105108-63.12262012-78.11119594-72.99314566-103.45773066-74.21172906 0 0-2.19345012-.12185834-5.84920032-.12185834h-.24371668c-3.6557502 0-5.84920032.12185834-5.84920032.12185834-25.22467638 1.34044174-83.71667958 11.08910894-103.33587232 74.21172906-16.81645092 53.86138628 15.11043416 114.66869794 8.65194214 122.83320672-25.95582642 32.9017518 9.38309218 85.05712132 14.13556744 89.32216322 8.65194214 7.79893376 36.31378532-7.9207921 31.92688508.12185834-3.29017518 6.21477534-6.33663368 52.76466122-6.33663368 52.76466122h8.5300838l4.14318356-16.20715922 7.3115004-.12185834 1.46230008 16.32901756h14.98857582l1.46230008-15.59786752 4.99619194-.73115004.73115004 16.32901756h12.06397566l.6092917-16.69459258h9.87052554l.6092917 16.69459258h12.06397566l.73115004-16.32901756 4.99619194.73115004 1.46230008 15.59786752h14.50114246l1.46230008-16.32901756 7.3115004.12185834 4.14318356 16.20715922h8.5300838s-3.0464585-46.54988588-6.33663368-52.76466122c-4.38690024-8.16450878 23.27494294 7.55521708 31.92688508-.12185834 4.75247526-4.2650419 40.09139386-56.42041142 14.13556744-89.32216322zm-116.86214806 34.1203352c-3.41203352 4.14318356-8.28636712 9.1393755-14.86671748 13.16070072-15.96344254 9.87052554-31.6831684 8.40822546-38.14166042 7.43335874-.36557502 0-.85300838-.24371668-1.2185834-.48743336-13.89185076-9.62680886-19.25361772-24.73724302-15.11043416-34.1203352.6092917-1.46230008 2.92460016-6.21477534 10.23610056-9.1393755.36557502-.12185834.85300838-.24371668 1.2185834-.24371668 8.77380048.85300838 19.74105108 2.80274182 31.92688508 6.94592538 9.87052554 3.29017518 18.15689266 7.43335874 24.9809597 11.33282562 1.8278751.97486672 2.31530846 3.41203352.97486672 5.11805028zm33.38918516 56.90784478c0 1.09672506-1.2185834 1.46230008-1.8278751.6092917-1.46230008-2.07159178-3.53389186-4.50875858-6.33663368-6.7022087-2.92460016-2.31530846-5.72734198-3.89946688-8.04265044-4.75247526-2.19345012.85300838-4.99619194 2.31530846-8.04265044 4.75247526-2.80274182 2.19345012-4.8743336 4.63061692-6.33663368 6.7022087-.6092917.85300838-1.8278751.36557502-1.8278751-.6092917-.48743336-7.9207921-.12185834-24.24980966 10.84539226-36.07006864 1.46230008-1.58415842 3.29017518-2.92460016 5.36176696-4.14318356 2.07159178 1.34044174 4.02132522 2.68088348 5.36176696 4.14318356 10.9672506 11.82025898 11.33282562 28.14927654 10.84539226 36.07006864zm53.37395292-36.80121868c-.36557502.24371668-.73115004.36557502-1.2185834.48743336-6.33663368.97486672-22.17821788 2.31530846-38.14166042-7.43335874-6.58035036-4.02132522-11.45468396-9.01751716-14.86671748-13.16070072-1.2185834-1.58415842-.85300838-4.02132522.85300838-4.99619194 6.82406704-3.89946688 15.2322925-7.9207921 24.9809597-11.33282562 12.185834-4.14318356 23.1530846-6.092917 31.92688508-6.94592538.36557502 0 .85300838 0 1.2185834.24371668 7.3115004 2.92460016 9.62680886 7.67707542 10.23610056 9.1393755 4.2650419 9.26123384-1.09672506 24.371668-14.98857582 33.99847686z"/>
</svg>
